<?xml version="1.0" encoding="utf-8"?>
<!-- Generator: Adobe Illustrator 19.0.0, SVG Export Plug-In . SVG Version: 6.00 Build 0)  -->
<svg version="1.1" id="图层_1" xmlns="http://www.w3.org/2000/svg" xmlns:xlink="http://www.w3.org/1999/xlink" x="0px" y="0px"
	 viewBox="0 0 158 158" style="enable-background:new 0 0 158 158;" xml:space="preserve">
<style type="text/css">
	.st0{fill:#999999;}
</style>
<g id="XMLID_183_">
	<path id="XMLID_212_" class="st0" d="M4,152v-6.1H0v6.1c0,3.2,2.5,5.8,5.7,6l0.2-4C4.8,154,4,153.1,4,152z"/>
	<rect id="XMLID_213_" y="121.6" class="st0" width="4" height="12.2"/>
	<rect id="XMLID_214_" x="18" y="154" class="st0" width="12.2" height="4"/>
	<rect id="XMLID_215_" x="18.2" class="st0" width="12.2" height="4"/>
	<rect id="XMLID_216_" x="42.4" y="154" class="st0" width="12.2" height="4"/>
	<path id="XMLID_217_" class="st0" d="M0,6v5.9h4V6c0-1.1,0.9-2,2-2l0-4C2.7,0,0,2.7,0,6z"/>
	<rect id="XMLID_218_" y="97.2" class="st0" width="4" height="12.2"/>
	<rect id="XMLID_219_" x="91.3" class="st0" width="12.2" height="4"/>
	<rect id="XMLID_220_" y="72.8" class="st0" width="4" height="12.2"/>
	<rect id="XMLID_221_" x="66.9" class="st0" width="12.2" height="4"/>
	<rect id="XMLID_222_" x="42.5" class="st0" width="12.2" height="4"/>
	<rect id="XMLID_223_" y="48.5" class="st0" width="4" height="12.2"/>
	<rect id="XMLID_224_" y="24.1" class="st0" width="4" height="12.2"/>
	<rect id="XMLID_225_" x="154" y="109.5" class="st0" width="4" height="12.2"/>
	<rect id="XMLID_226_" x="154" y="133.9" class="st0" width="4" height="12.2"/>
	<rect id="XMLID_227_" x="154" y="12.1" class="st0" width="4" height="12.2"/>
	<rect id="XMLID_228_" x="154" y="36.4" class="st0" width="4" height="12.2"/>
	<polygon id="XMLID_229_" class="st0" points="140,4 152.1,4 152.2,0 140,0 	"/>
	<rect id="XMLID_230_" x="154" y="60.8" class="st0" width="4" height="12.2"/>
	<rect id="XMLID_231_" x="154" y="85.1" class="st0" width="4" height="12.2"/>
	<rect id="XMLID_232_" x="91.1" y="154" class="st0" width="12.2" height="4"/>
	<polygon id="XMLID_233_" class="st0" points="139.8,158 152,158 152,156 152,154 139.8,154 	"/>
	<rect id="XMLID_234_" x="66.7" y="154" class="st0" width="12.2" height="4"/>
	<rect id="XMLID_235_" x="115.5" y="154" class="st0" width="12.2" height="4"/>
	<rect id="XMLID_236_" x="115.6" class="st0" width="12.2" height="4"/>
	<path id="XMLID_237_" class="st0" d="M107,77H81V51c0-1.1-0.9-2-2-2s-2,0.9-2,2v26H51c-1.1,0-2,0.9-2,2s0.9,2,2,2h26v26
		c0,1.1,0.9,2,2,2s2-0.9,2-2V81h26c1.1,0,2-0.9,2-2S108.1,77,107,77z"/>
</g>
</svg>
